<?xml version="1.0" encoding="UTF-8"?>
<!DOCTYPE svg PUBLIC "-//W3C//DTD SVG 1.1//EN" "http://www.w3.org/Graphics/SVG/1.1/DTD/svg11.dtd">
<!-- Creator: CorelDRAW -->
<svg xmlns="http://www.w3.org/2000/svg" xml:space="preserve" width="169.333mm" height="169.333mm" version="1.1" style="shape-rendering:geometricPrecision; text-rendering:geometricPrecision; image-rendering:optimizeQuality; fill-rule:evenodd; clip-rule:evenodd"
viewBox="0 0 16933.32 16933.32"
 xmlns:xlink="http://www.w3.org/1999/xlink"
 xmlns:xodm="http://www.corel.com/coreldraw/odm/2003">
 <defs>
  <style type="text/css">
   <![CDATA[
    .str1 {stroke:#1D4ED8;stroke-width:42.33;stroke-miterlimit:22.9256}
    .str0 {stroke:#1D4ED8;stroke-width:25.4;stroke-miterlimit:22.9256;stroke-dasharray:25.400000 25.400000}
    .fil0 {fill:#1D4ED8}
    .fil2 {fill:#0F172A;fill-rule:nonzero}
    .fil1 {fill:#1D4ED8;fill-rule:nonzero}
    .fil3 {fill:#F97316;fill-rule:nonzero}
   ]]>
  </style>
 </defs>
 <g id="Layer_x0020_1">
  <metadata id="CorelCorpID_0Corel-Layer"/>
  <g id="_2405272654992">
   <g>
    <polygon class="fil0 str0" points="14757.39,10780.7 14757.39,14757.39 10780.7,14757.39 14757.39,14757.39 "/>
    <polygon class="fil0 str1" points="10780.7,2175.93 14757.39,2175.93 14757.39,6152.62 14757.39,2175.93 "/>
    <polygon class="fil0 str1" points="2175.93,14757.39 6152.62,14757.39 2175.93,14757.39 2175.93,10780.7 "/>
    <polygon class="fil0 str0" points="2175.93,2175.93 6152.62,2175.93 2175.93,2175.93 2175.93,6152.62 "/>
   </g>
   <path id="anvil-impact-svgrepo-com.svg" class="fil1" d="M7443.41 8221.14l0 370 -1616.83 0c290.86,705.75 931.57,1189.91 1616.83,1350.85l0 599.57 1065.02 0c-220.38,555.19 -609.33,1012.68 -1063.35,1411.12l-463.08 0 0 339.81 5170.96 0 0 -339.78 -498.4 0c-522.56,-398.18 -910.32,-855.07 -1120.72,-1411.15l1157.67 0 0 -530.8c359.13,-127.19 718.36,-354.81 1077.52,-667.2 -360.31,-318.63 -713.45,-495.55 -1077.52,-580.81l0 -541.57 -4248.06 0 -0.04 -0.04z"/>
   <polygon id="anvil-impact-svgrepo-com.svg_2" class="fil2" points="7673.06,5226.19 7091.09,5488.18 7397.98,6500.33 4164.29,7955.76 4392.79,8462.7 7626.41,7006.71 8179.38,7906.37 9076.18,7502.82 8688.02,6223.58 7673.06,5226.19 "/>
   <polygon id="anvil-impact-svgrepo-com.svg_3" class="fil3" points="11367.6,4640.83 9977.5,6851.57 9827.46,6257.1 9277.94,7875.07 10417.35,7340.87 10421.37,7876.22 12731.52,6949.86 11443.74,6914.05 12312.69,5664.92 10976.56,6378.73 11367.57,4640.83 "/>
  </g>
 </g>
</svg>
